<svg version="1.2" xmlns="http://www.w3.org/2000/svg" viewBox="0 0 1000 1000" width="1920" height="1920">
	<title>2704890-ai</title>
	<style>
		.s0 { fill: none } 
		.s1 { opacity: .3;fill: #5fb387 } 
		.s2 { fill: #31708e } 
		.s3 { fill: none;stroke: #262525;stroke-miterlimit:10;stroke-width: 6 } 
		.s4 { fill: #687864 } 
		.s5 { fill: #ffffff } 
		.s6 { fill: #ffffff;stroke: #000000;stroke-miterlimit:10;stroke-width: 2 } 
		.s7 { fill: #3c3e41 } 
		.s8 { opacity: .3;fill: #687864 } 
		.s9 { fill: #0d1013 } 
		.s10 { fill: none;stroke: #ffffff;stroke-miterlimit:10;stroke-width: 2 } 
		.s11 { fill: none;stroke: #000000;stroke-miterlimit:10;stroke-width: 2 } 
		.s12 { fill: #262525 } 
		.s13 { fill: #ad4f09 } 
		.s14 { fill: #5085a5 } 
		.s15 { fill: #8fc1e3;stroke: #000000;stroke-miterlimit:10;stroke-width: 2 } 
		.s16 { fill: #31708e;stroke: #000000;stroke-miterlimit:10;stroke-width: 2 } 
		.s17 { fill: #000000 } 
		.s18 { fill: #8fc1e3 } 
	</style>
	<g id="BACKGROUND">
	</g>
	<g id="OBJEKTS">
		<g id="&lt;Group&gt;">
		</g>
		<g id="&lt;Group&gt;">
		</g>
		<g id="&lt;Group&gt;">
			<path id="&lt;Path&gt;" class="s0" d="m135.3 631.2c-1.6-0.7-1.4 3 0.4 2.8 1.7-0.2 2.6-2.2 3-3.9 12.5-47 9.9-97.1 22.5-144.1 10.1-37.6 29.6-72 40.4-109.4 8.1-27.8 11.4-57.1 23.6-83.3 16.9-36.6 50-64.2 87-80.4 24.2-10.7 50.8-17 77.3-15.3 48.4 3.2 104.9 22 148.4 42.1 26.2 12.2 52.5 24.4 80.2 32.8 46.6 14.2 96.9 17.6 140.3 39.6 53.1 27 91 83 96.9 142.3 1.4 13.8-2 23.6-3.7 36.8-2.5 18.5 0.9 38.7 1.9 57.2 2.2 39.2 4 78.6-1.4 117.6"/>
			<path id="&lt;Path&gt;" class="s1" d="m898.5 682.2h-783c-9.7 0-17.5-7.9-17.5-17.5 0-9.7 7.8-17.6 17.5-17.6h783c9.7 0 17.5 7.9 17.5 17.6 0 9.6-7.8 17.5-17.5 17.5z"/>
			<g id="&lt;Group&gt;">
				<path id="&lt;Compound Path&gt;" class="s2" d="m128.4 655.9v-216.2h120.3v33h-84.8v57.7h73v32.3h-73v59.7h84.8v33.5z"/>
				<path id="&lt;Compound Path&gt;" fill-rule="evenodd" class="s2" d="m370.8 655.9l-32.3-90h-27.7v90h-35.4v-216.2h69.6q13.3 0 24.8 3.9 11.5 3.9 19.8 11.7 8.2 7.7 12.9 19.4 4.6 11.6 4.6 27.2 0 20.5-8.7 35.4-8.7 14.9-25.8 22.7l37 95.9zm1.5-154q0-15.3-7.7-22.6-7.8-7.3-22.4-7.3h-31.4v61.9h31.1q14 0 22.2-8.1 8.2-8.1 8.2-23.9z"/>
				<path id="&lt;Compound Path&gt;" fill-rule="evenodd" class="s2" d="m534.8 655.9l-32.3-90h-27.7v90h-35.4v-216.2h69.6q13.4 0 24.9 3.9 11.5 3.9 19.7 11.7 8.2 7.7 12.9 19.4 4.6 11.6 4.6 27.2 0 20.5-8.7 35.4-8.7 14.9-25.7 22.7l36.9 95.9zm1.6-154q0-15.3-7.8-22.6-7.8-7.3-22.4-7.3h-31.3v61.9h31q14 0 22.2-8.1 8.3-8.1 8.3-23.9z"/>
				<path id="&lt;Compound Path&gt;" fill-rule="evenodd" class="s2" d="m730.2 590.4q0 15.5-4.8 28-4.8 12.4-13.7 21.2-8.8 8.9-21 13.5-12.1 4.7-26.7 4.7-17.7 0-30.4-5.7-12.8-5.8-20.7-15.6-7.9-9.8-11.6-22.6-3.8-12.9-3.8-27.2v-81.7q0-11.5 3.6-23.3 3.6-11.8 11.5-21.5 7.9-9.6 20.5-15.8 12.6-6.2 30.9-6.2 17.1 0 29.5 5.9 12.5 5.9 20.7 15.4 8.2 9.4 12.1 21.4 3.9 11.9 3.9 24.1zm-36-86q0-4.1-1.4-9.5-1.4-5.5-4.9-10.4-3.4-5-9.1-8.6-5.8-3.6-14.8-3.6-9 0-15 3.3-6.1 3.3-9.7 8.1-3.5 4.8-5.1 10.4-1.6 5.6-1.5 10.6l0.3 82.8q0 15.6 7.1 26.1 7.2 10.6 24.2 10.6 12.2 0 21-8.2 8.9-8.3 8.9-22.6z"/>
				<path id="&lt;Compound Path&gt;" fill-rule="evenodd" class="s2" d="m859.1 655.9l-32.3-90h-27.6v90h-35.5v-216.2h69.6q13.4 0 24.9 3.9 11.5 3.9 19.7 11.7 8.2 7.7 12.9 19.4 4.7 11.6 4.7 27.2 0 20.5-8.7 35.4-8.7 14.9-25.8 22.7l37 95.9zm1.5-154q0-15.3-7.8-22.6-7.7-7.3-22.3-7.3h-31.4v61.9h31.1q13.9 0 22.2-8.1 8.2-8.1 8.2-23.9z"/>
			</g>
			<g id="&lt;Group&gt;">
				<path id="&lt;Path&gt;" class="s3" d="m370.6 208.8v44.2"/>
				<path id="&lt;Path&gt;" class="s4" d="m454.7 221.2h-168.1v-77.8h168.1z"/>
				<g id="&lt;Group&gt;">
					<path id="&lt;Compound Path&gt;" class="s5" d="m349.1 194.5v7h-7.7v-7h-17.4v-6.7l13.5-34.6h8l-13.2 34.1h9.1v-12.2h7.7v12.2h3.5v7.2z"/>
					<path id="&lt;Compound Path&gt;" fill-rule="evenodd" class="s5" d="m383.3 189.8q0 2.9-1 5.1-1 2.2-2.7 3.8-1.8 1.6-4 2.4-2.3 0.8-4.8 0.8-2.4 0-4.7-0.8-2.2-0.8-3.9-2.4-1.7-1.6-2.7-3.8-1-2.2-1-5.1v-24.8q0-2.9 1-5.2 1-2.2 2.7-3.8 1.7-1.5 3.9-2.3 2.3-0.8 4.7-0.8 2.5 0 4.8 0.8 2.3 0.8 4 2.3 1.7 1.6 2.7 3.8 1 2.3 1 5.2zm-7.6-24.8q0-2.3-1.4-3.5-1.3-1.3-3.4-1.3-2.2 0-3.5 1.3-1.3 1.2-1.3 3.5v24.7q0 2.4 1.3 3.7 1.3 1.2 3.5 1.2 2.1 0 3.4-1.2 1.4-1.3 1.4-3.7z"/>
					<path id="&lt;Compound Path&gt;" class="s5" d="m413.6 194.5v7h-7.6v-7h-17.4v-6.7l13.4-34.6h8.1l-13.3 34.1h9.2v-12.2h7.6v12.2h3.6v7.2z"/>
				</g>
			</g>
			<path id="&lt;Path&gt;" class="s6" d="m686.4 425.5c1.8 1.7 2.8 4.8 3.5 6.9 1.5 4.3 2.9 8.5 4.3 12.8 1.4 4.3 2.8 8.8 2 13.3-0.3 1.7-1 3.6-2.6 4.5-1 0.5-2.3 0.6-3.4 0.3-3.1-0.6-5.2-3.4-6.4-6.2-1.2-2.9-1.7-6-2.8-8.8-1.9-5.1-5.8-10.3-11.4-10.9-2.9-0.3-6.6-0.6-8.6-3-2.1-2.5-2.2-7.9 0.6-9.8 1-0.7 2.1-1 3.2-1.2 3.5-0.7 7.1-0.3 10.7 0 3.1 0.2 6.5-0.4 9.4 1q0.9 0.4 1.5 1.1z"/>
			<path id="&lt;Path&gt;" class="s6" d="m380.3 268.2q0.8-3.8 1.6-7.6c1.1-5.4 4-10.9-0.1-15.7-3.7-4.2-11.4-2.7-15.8-0.2-4.3 2.5-7.3 7.7-6.2 12.5 0.9 4.2 4.9 7.5 9.1 7.7q-1.7 5.6-3.1 11.3c-1.4 5.4 1.9 7.3 6.8 6.3 1.2-0.3 2.4-0.5 3.4-1.3 1.5-1.1 2-3.1 2.4-4.8q1-4.1 1.9-8.2z"/>
			<path id="&lt;Path&gt;" class="s7" d="m669.4 418.9q-1-0.2-2.1-0.4c-22.9-4.2-47.8-11.3-71.2-9.1-5 0.5-10 1.4-15 1.7-17.1 1.1-33.4-4.9-49.8-8.5-6.7-1.5-13.3-2.2-20-3.6-8.1-1.7-16.5 0-24.7-1.1-7.2-0.9-14.2-4-21.4-3.1-9.3 1.2-17.4 6.9-19.9 16.1-1.2 4.6-0.6 9.5 0.5 14.2 1 4.3 2.7 8.9 6.6 11.1 8.1 4.7 23.4 1.7 32.4 1.8 12.1 0.2 24.3 0.6 36.4 1 24 0.8 48 1.7 71.9 1.1 24.7-0.7 49.4-0.1 74 0.8q1.3-11 2.3-22z"/>
			<path id="&lt;Path&gt;" class="s6" d="m264.3 467c-3.6 3.8-5.5 9-6.8 14-0.8 2.9-1.1 6.1-0.2 9 1.1 3.7 4.5 7.1 8.5 6.3 2.6-0.6 4.7-3.4 4.6-6 0-1.4-0.7-2.8-1.8-3.7q0.2-1.9 0.6-3.7c0.1-0.5 0.2-1 0.5-1.3 1.2-1.2 1.5 0.7 1.5 1.5-0.1 0.8-1 3 0.1 3.5 0.7 0.3 1.2-0.6 1.4-1.3 0.6-2.5 0.8-5.2 1-7.8q0.3-3.6 0.6-7.1c0.1-0.8 0.1-1.6 0-2.4-0.4-2.2-2.9-4.3-5.2-4-1.8 0.3-3.5 1.6-4.8 3z"/>
			<g id="&lt;Group&gt;">
				<g id="&lt;Group&gt;">
					<path id="&lt;Compound Path&gt;" fill-rule="evenodd" class="s8" d="m733.5 338l2.4 5.1c0.3 0.6 0.4 0.9-0.2 1.2l-1.8 0.8c-0.5 0.3-0.8 0.9-0.7 1.5 0.5 2.2 0.7 4.8 0.4 7.2 0 0.6 0.3 1.1 0.9 1.3l2 0.6c0.7 0.2 1.1 0.9 0.8 1.6l-1.8 5.2c-0.3 0.6-1 1-1.6 0.8l-2.4-0.8c-0.5-0.2-1.2 0-1.5 0.5-1.3 2.1-3.2 4.1-5.2 5.6-0.4 0.4-0.7 1.1-0.5 1.6l1.1 2.3c0.3 0.6 0.4 0.9-0.2 1.2l-5.1 2.4c-0.7 0.3-1.5 0.4-1.8-0.3l-1.1-2.3c-0.2-0.5-0.7-0.8-1.3-0.7q-3.4 0.7-7 0.3c-0.6-0.1-1.2 0.3-1.4 0.8l-0.7 2.2c-0.2 0.6-0.9 1-1.5 0.8l-5.2-1.8c-0.6-0.3-1-1-0.7-1.6l0.8-2.2c0.2-0.6 0-1.2-0.5-1.5-2-1.3-3.9-3.1-5.3-4.8-0.4-0.5-1-0.7-1.5-0.4l-2.3 1c-0.6 0.3-1.4 0.3-1.7-0.3l-2.4-5.1c-0.3-0.6 0.2-1.3 0.8-1.6l2.3-1.1c0.5-0.2 0.7-0.9 0.6-1.4-0.7-2.8-0.7-5.1-0.4-7.5 0.1-0.5-0.3-1.1-0.8-1.3l-2.6-1c-0.7-0.3-1-0.9-0.8-1.6l1.9-5.2c0.2-0.6 0.9-1 1.6-0.7l2.4 0.9c0.5 0.2 1.1 0 1.4-0.5q1.9-3 4.7-5.2c0.4-0.4 0.5-0.9 0.2-1.4l-1.1-2.5c-0.3-0.6-0.1-1.8 0.5-2.1l5.1-2.4c0.7-0.3 1.1 0.6 1.4 1.2l1.2 2.4c0.2 0.5 1 0.7 1.6 0.6 2.3-0.5 5.1-0.8 7.5-0.5 0.6 0 1.1-0.3 1.3-0.8l1-2.6c0.2-0.6 0.9-1 1.5-0.7l5.3 1.9c0.6 0.2 1 0.9 0.8 1.5l-0.9 2.6c-0.2 0.6 0 1.2 0.5 1.5 2 1.2 3.8 2.7 5.5 5 0.4 0.5 1 0.6 1.5 0.4l1.8-0.9c0.7-0.3 0.9 0.1 1.2 0.8zm-11.4 8.1c-2.8-5.9-9.9-8.5-15.8-5.6-5.9 2.8-8.5 9.8-5.7 15.7 2.8 6 9.9 8.5 15.8 5.7 5.9-2.8 8.5-9.9 5.7-15.8z"/>
				</g>
			</g>
			<g id="&lt;Group&gt;">
				<g id="&lt;Group&gt;">
					<path id="&lt;Compound Path&gt;" fill-rule="evenodd" class="s8" d="m797.7 372.3l3.2 6.9c0.4 0.9 0.6 1.3-0.3 1.7l-2.4 1.1c-0.7 0.3-1 1.2-0.8 2 0.6 3 0.8 6.5 0.5 9.7-0.1 0.8 0.4 1.5 1.1 1.7l2.8 0.9c0.9 0.3 1.4 1.3 1.1 2.2l-2.6 7c-0.3 0.8-1.2 1.3-2.1 1l-3.2-1.1c-0.7-0.2-1.6 0.1-2 0.7-1.8 2.8-4.4 5.5-7 7.6-0.6 0.5-1.1 1.5-0.7 2.1l1.5 3.2c0.3 0.8 0.5 1.2-0.4 1.6l-6.9 3.3c-0.8 0.4-1.9 0.4-2.3-0.4l-1.5-3.1c-0.3-0.7-1-1.2-1.7-1q-4.7 1-9.6 0.4c-0.8-0.1-1.5 0.3-1.8 1.1l-0.9 2.9c-0.3 0.9-1.3 1.4-2.1 1.1l-7-2.5c-0.9-0.3-1.3-1.3-1-2.1l1.1-3c0.3-0.7 0-1.5-0.6-2-2.8-1.7-5.3-4.1-7.2-6.5-0.5-0.6-1.4-0.9-2.1-0.5l-3 1.4c-0.8 0.4-1.9 0.4-2.3-0.4l-3.3-6.9c-0.4-0.8 0.2-1.8 1.1-2.2l3-1.5c0.8-0.3 1.1-1.1 0.9-1.9-0.9-3.7-0.9-6.9-0.5-10.1 0.1-0.7-0.4-1.4-1.1-1.7l-3.6-1.4c-0.8-0.3-1.2-1.3-0.9-2.1l2.5-7.1c0.3-0.8 1.2-1.3 2.1-1l3.3 1.3c0.7 0.2 1.5 0 1.9-0.7 1.7-2.7 3.8-5 6.3-7 0.6-0.5 0.7-1.3 0.3-2l-1.5-3.2c-0.4-0.9-0.1-2.6 0.7-2.9l6.9-3.3c0.8-0.4 1.5 0.8 1.9 1.6l1.5 3.3c0.4 0.7 1.4 1 2.2 0.8 3.2-0.7 6.9-1 10.2-0.7 0.7 0.1 1.4-0.4 1.7-1.1l1.3-3.5c0.3-0.8 1.3-1.2 2.1-0.9l7.2 2.6c0.8 0.3 1.3 1.2 1 2.1l-1.2 3.5c-0.3 0.7 0 1.5 0.7 1.9 2.7 1.7 5.1 3.7 7.4 6.8 0.5 0.6 1.4 0.8 2.1 0.5l2.4-1.1c0.9-0.4 1.2 0.1 1.6 0.9zm-15.4 11c-3.8-8-13.4-11.4-21.4-7.6-8 3.8-11.4 13.3-7.6 21.3 3.8 8 13.4 11.4 21.3 7.6 8-3.7 11.4-13.3 7.7-21.3z"/>
				</g>
			</g>
			<g id="&lt;Group&gt;">
				<path id="&lt;Path&gt;" class="s1" d="m139 777.3c-5.5-0.9-11.2-1.3-16.4-3.4-6.3-2.6-11.8-8.8-10.5-15.5 1.1-5.7 7-9.5 12.8-10.1 5.8-0.7 11.5 1 17.2 2.4 9.6 2.5 19.4 4.3 29.2 5.4 14.3 1.6 29.7 2.2 40.9 11.2 7.4 6 12.8 15.6 22.2 17.4 1.9 0.3 4 0.3 5.8 0.9 1.9 0.6 3.8 2 4 4 0.6 4-9.3 4.5-12.2 5.3-8.1 2.2-15.9 5.2-23.9 7.5-8.5 2.4-17.6 1.7-26.3 0.9-8.7-0.8-18.5-2.2-23.5-9.3-2.6-3.7-3.6-8.6-6.8-11.8-2.4-2.4-5.7-3.5-9.1-4.3q-1.6-0.3-3.4-0.6z"/>
				<g id="&lt;Group&gt;">
					<g id="&lt;Group&gt;">
						<g id="&lt;Group&gt;">
							<path id="&lt;Compound Path&gt;" fill-rule="evenodd" class="s9" d="m122.1 732.4c3.5-2.3 7.7-3 11.8-2.1 3.4 0.7 6.6 2.9 9.8 6.7l87.1 18.8-4.9 22.1-86.9-18.8c-3.4 2.3-7.6 3-11.9 2.1-3.9-0.9-7.1-3.1-9.3-6.2-2.6-3.5-3.7-8.1-2.7-12.7 1-4.1 3.4-7.6 7-9.9zm3.1 15.8c0.5 1.2 1.8 2.1 3 2.5 1.2 0.3 2.3 0.2 3.4-0.2q-0.4 0.1-0.8 0.2 0 0 0.1 0c2.2-0.4 3.7-2.5 3.9-4.6 0.2-2.1-1.5-4.6-3.5-5q-0.1 0-0.1 0c-0.9-0.2-1.7-0.2-2.5-0.1q0 0 0 0-0.1 0-0.2 0.1-0.5 0.1-1.1 0.3-0.1 0.1-0.2 0.2c-2.5 1.1-3 4.4-2 6.6z"/>
						</g>
						<path id="&lt;Path&gt;" class="s10" d="m140.1 752.4l86.9 18.8"/>
						<path id="&lt;Path&gt;" class="s10" d="m142.1 743.8l86.9 18.7"/>
						<g id="&lt;Group&gt;">
							<path id="&lt;Compound Path&gt;" class="s6" d="m215.7 765.7c-1.2 5.6-0.2 11.2 2.8 16q0.4 0.6 0.8 1.1c3 4.2 7.4 7.1 12.6 8.2 4.8 1.1 9.8 0.5 14.2-1.8l2.9-1.4-16.1-11.2 8.7-12.6 15.8 10.9 0.2-3.4c0.6-10.4-6.3-19.7-16.6-21.9-11.4-2.5-22.7 4.7-25.3 16.1z"/>
						</g>
					</g>
				</g>
			</g>
			<g id="&lt;Group&gt;">
				<path id="&lt;Path&gt;" class="s1" d="m277.9 752.6c-10.9-1.3-23.9-5.2-26.3-15.9-2.1-9.2 6-18.2 15.1-20.9 9.1-2.7 18.9-0.9 28.3 0.4 13.8 2 112.9 3.4 110.1 23-1.4 9.9-48.7 11.9-57.9 12.9-23 2.4-46.3 3.1-69.3 0.5z"/>
				<g id="&lt;Group&gt;">
					<g id="&lt;Group&gt;">
						<g id="&lt;Group&gt;">
							<path id="&lt;Compound Path&gt;" class="s9" d="m361.2 721.2l-1.6 6.3-75.1-13.2 1.6-6.3z"/>
						</g>
						<g id="&lt;Group&gt;">
							<path id="&lt;Compound Path&gt;" class="s6" d="m415.6 722.7q0.2 0.3 0.4 0.6c2 2.8 2.8 6.1 2.2 9.4-1.3 6.9-8 11.5-15.2 10.3l-73.1-12.4 3.8-24.1 73.6 11.3c3.3 0.6 6.3 2.3 8.3 4.9z"/>
						</g>
						<g id="&lt;Group&gt;">
							<path id="&lt;Compound Path&gt;" class="s6" d="m299.4 698.8l9.7 13.8-1.9 5.6-12.5 8.4-28.4-12 2.9-15.9z"/>
						</g>
					</g>
					<path id="&lt;Path&gt;" class="s11" d="m351 717.7l67.3 10.7"/>
					<path id="&lt;Path&gt;" class="s11" d="m349.5 726l67.4 10.8"/>
					<path id="&lt;Path&gt;" class="s11" d="m335.9 731.6l4.7-24.4"/>
					<path id="&lt;Path&gt;" class="s6" d="m275.2 714l15.9 6"/>
				</g>
			</g>
			<path id="&lt;Path&gt;" class="s6" d="m333.9 404.1c-7.5-1.1-15.3 1.2-22.5 2.4q-4.4 0.9-8.8 1.7c-3.7 0.8-7.6 1.3-11 2.9-5.2 2.5-9 7.3-11.9 12.2-3.1 5.1-5.5 10.5-7.9 15.9-4 8.8-7.5 17.7-11.1 26.5-0.2 0.5 0 1.1 0.5 1.4 5.4 2.5 10.6 5.2 15.8 7.9 0.3 0.2 0.5 0.1 0.6-0.2 1.4-4.4 19.5-34 23.7-36.1 2.2-1.1 5.5-1.2 7.9-1.9 5.5-1.6 10.8-3.6 15.9-6q7.1-3.4 13.6-7.8c1.4-1 2.7-2.3 3.4-3.9 3.4-7.5-0.4-13.9-8.2-15z"/>
			<path id="&lt;Path&gt;" class="s6" d="m562.6 510c-1.5-2.5-3-5-4.3-7.7-0.7-1.6-1.4-3.2-2.7-4.3-1.8-1.7-4.5-2.1-7-2.4-3.6-0.5-7.3-1-10.8-0.1-1.5 0.3-3 1-4 2-3 3.1-0.2 8.5 2.8 10.6 3.1 2.2 6.9 2.7 10 5.2 3.1 2.5 4.9 6.2 6.6 9.7q2.5 5.2 5 10.3c0.3 0.7 0.7 1.4 1.4 1.6 0.4 0.1 0.8 0.1 1.2 0 4.2-1 6.7-5.6 6.9-9.9 0.1-5.8-2.3-10.4-5.1-15z"/>
			<path id="&lt;Path&gt;" class="s6" d="m300.8 433.1c2.8 2.6 6.3 4.6 9.4 5.6 3.8 1.1 8.4 0.3 10.9-2.7 2.3-2.9 3.1-7.6 6.7-8.2 1-0.1 2.1 0.2 3.1 0.5 5 1.7 10 4.4 15.2 3.7 3.4-0.5 6.4-2.5 8.7-5 2.5-2.9 4.2-6.9 3.5-10.7-1.5-7.7-11.5-9.3-17.8-9.7-8.5-0.5-17.3-0.4-25.6-2.3-6.2-1.4-11.5-1.1-16.4 4-4.6 4.8-5.4 12.6-2.5 18.6 1 2.2 2.7 4.3 4.8 6.2z"/>
			<path id="&lt;Path&gt;" class="s6" d="m348.9 385.7c-10.3 1-13.5 7.8-18.8 15.5-4.3 6.4-8.5 15.9-2.8 22.6 4.5 5.4 10.5 7.9 16.4 11.3 5.1 2.9 9.1 5.1 15.5 4.8 15.5-0.6 31.2 1.1 46.8 1 10.1 0 19.7 0.1 29.3-3 8.5-2.6 11.5-10.8 13.7-19 2.3-8.3 3.5-20.2-2.3-27.5q-1.1-1.4-2.6-2.6c-1.5-1.1-3.2-1.9-4.9-2.6-3.3-1.3-6.8-2.5-10.3-1.7-0.7 0.2-1.5 0.5-2.3 0.7-7 2.1-13.8 3-21.1 3.8-8.2 0.8-16.7 0.1-24.9-0.8-10.4-1-21.3-3.6-31.7-2.5z"/>
			<path id="&lt;Path&gt;" class="s7" d="m540.8 505c0.5-2.8 1.4-10-0.4-11.8-1.8-1.7-4.2-1.9-6.4-2.4-2.9-0.7-5.7-1.7-8.6-2.5q-8.8-2.5-17.6-5.1c-9.6-2.8-18.7-6.3-27.9-10.1-12.5-5.2-25.4-11-38.8-9.7-3.2 0.4-6.2 1.6-9.3 2.2-3.4 0.8-7 2-9.9 4.1-4.4 3.3-5.5 9-3.6 14 4.6 12.1 17 12.6 27.6 15.5 5.6 1.5 11.5 1.8 17.2 2.3q28.7 2.4 57.3 6.7 7.2 1.1 14.4 2.3c1.3 0.2 3 0.7 4.6 0.9 0.5-2.1 1-4.3 1.4-6.4z"/>
			<path id="&lt;Path&gt;" class="s7" d="m426 492.6q1.2 0.3 2.5 0c10.2-2.6 19-11.6 25.1-19.7 9.8-12.9 15.8-28.1 25-41.2 2.8-4.1 6.6-6.9 8.9-11.2 4.2-7.7 6.2-18 4.6-26.7-3.1-16.7-22.5-21.6-37.2-19.1-9.6 1.6-18.2 7.2-27.8 9-1.2 0.2-2.5 0.4-3.5 1.1-0.3 0.3-0.5 0.8-0.7 1.4 0.1 11.7 0.1 23.3-0.1 35.1-0.1 7.3 0.8 16.6-0.2 22.6-0.6 3.6-3.5 7.7-4.7 11.4-2.7 8.5-3.6 17.7-0.5 26.4 1.2 3.5 4.4 9.8 8.6 10.9z"/>
			<path id="&lt;Path&gt;" class="s12" d="m373.8 417.3q0.3 0.5 0.5 1.1"/>
			<path id="&lt;Path&gt;" class="s6" d="m370.7 404.9c3.4-5.5 6.4-11.7 8.8-18.2 3.2-8.4 5.4-17.2 6.3-25.4 0.8-7.7 0.4-15.4-0.1-23.1-1.4-22.6-1.7-45.5-4.2-67.9-2.3 1.1-19.1 2.7-19 2.1q-4.6 37.5-9.2 75c-0.7 5.9-1.5 11.9-3.4 17.5-2 5.8-5.2 11.1-8.2 16.5-5 9.2-16.8 25.4-14.5 36"/>
			<path id="&lt;Path&gt;" class="s12" d="m412.6 394.2q0 0.4 0 0.8"/>
			<path id="&lt;Path&gt;" class="s10" d="m423.4 442.1c6.3-12.2 14-23.6 22.8-34.1"/>
			<path id="&lt;Path&gt;" class="s7" d="m375.6 413.3c-0.4-3.2-1-6.3-1.4-9.6-0.1-1.6-0.3-3.2-0.8-4.7q0-0.2-0.1-0.4c-3.2 6.5-8.9 11.5-14.7 15.8q8.2 4.6 16.3 9.2c1.5 0.8 0.9-9.1 0.7-10.3z"/>
			<path id="&lt;Path&gt;" class="s13" d="m318.1 416.3c0 1-0.9 2.2-1.6 3 9.6 4.8 11.2 24.2 10.3 33.4-0.6 6.2-2.4 12.2-2.9 18.4-0.8 9.2 1.6 19 7.9 25.8 7.6 8.2 20.5 10.7 31 6.7 10.5-3.9 18.3-13.8 20.6-24.8 5.7-27-20.6-50.8-37.4-68.2-6.6-6.8-15-11.7-24.8-11.3-3 0.1-5.9 0.7-8.8 1.4-7.3 1.7-14 4.3-17.8 11.1-2.3 4-6.4 7.1-7.6 11.6-0.9 3.4 0.1 7.2 2.6 9.5 2.6 2.4 6.7 2.9 9.7 1.1 6.6-3.9 4.4-18.4 13.3-17.9-0.2-0.8 0.4-1.6 1.1-1.9 0.8-0.4 1.6-0.4 2.4-0.3 0.4 0 0.7 0 1.1 0.1 0.7 0.4 0.8 1.5 0.9 2.3z"/>
			<path id="&lt;Path&gt;" class="s6" d="m313 436.5c-0.6-2.1-0.1-4.5 1.3-6.1"/>
			<path id="&lt;Path&gt;" class="s10" d="m490 410.8c-3.8 9.7-11.2 17.6-14.9 27.4"/>
			<g id="&lt;Group&gt;">
				<path id="&lt;Path&gt;" class="s1" d="m757.5 736.7c-0.8 1.4-1.3 3-1.2 4.8 0.1 3.2 2.6 6.1 5.6 7.5 3 1.3 6.4 1.5 9.6 1.4 10.4-0.4 20.4-3.3 30-7.1 8.4-3.4 18.6-6.8 25.1-13.3 1.7-1.6 2.8-4.3 1.5-6.2-0.9-1.5-2.8-1.9-4.5-2.2-12.8-2.2-26.1-1.6-38.7 1.6-7.1 1.8-23 5.4-27.4 13.5z"/>
				<g id="&lt;Group&gt;">
					<path id="&lt;Path&gt;" class="s14" d="m811.1 639q0-0.5 0.1-1c0.6-3.8 3.5-6.6 5.5-9.8 2-3.1 3.1-6.8 3.3-10.5 0.3-6.9 0.1-15.7 3-22.1 2.7-5.8 9.1-8.9 12.4-14.3 1.8-3 2.3-6.6 3.1-10 1.3-5.4 3.4-10.7 7-14.9 2.8-3.3 6.5-5.8 10.1-8.2 3.5-2.3 7-4.7 11-6.1 5.2-1.8 11-2.4 13.4 3 2 4.3 1 10.4-1.1 14.5-1.8 3.6-4.6 6.5-7.3 9.4-4.6 5.1-8.8 10.6-12.6 16.4-1.1 1.6-2.1 3.3-2.4 5.2-0.2 1.8 0.3 3.7 0.6 5.5 1.2 9.4-2.7 17-10 22.8-5.7 4.5-9.3 7-10.7 14.9-0.9 4.8-1.3 9.9-4 14.1-1.1 1.7-2.5 3.1-3.8 4.6-4.9 5.7-7.9 12.9-8.6 20.3-0.3 3.7-1.1 12.1-7 10.4-7.4-2-6.5-23.4-4.3-28.4 0.9-2.2 2.3-4.2 2.7-6.5 0.6-3-0.6-6.2-0.4-9.3z"/>
					<path id="&lt;Path&gt;" class="s15" d="m780.1 654.6c0-2.7 0.4-5.6 1.3-8.5 1.2-3.6 3.1-7.1 2.5-10.8-1-6.1-8-9.5-10.2-15.2-3-8 4.1-15.9 5.6-24.2 1.4-7.1-1.3-14.2-3.1-21.1-0.8-3-5.3-20.1 3.6-17.4 1.4 0.4 2.3 1.8 2.9 3.1 4.3 8.2 5.4 18.5 12.3 25.2 2.8 2.8 6.4 4.6 9.1 7.5 4.2 4.6 5.4 11.4 4.5 17.6-1.7 10.8-12.3 18-8.1 29 1.8 4.6 4.8 8.6 7.3 12.9 5.1 8.8 15.6 44.2-5.4 31.9-11.2-6.4-22-17-22.3-30z"/>
					<path id="&lt;Path&gt;" class="s16" d="m821.6 655.3q0.2-0.3 0.4-0.7c2.6-5 6.1-9.5 8.8-14.4 2.1-4.1 3.8-8.4 6.2-12.3 2.5-3.8 5.9-7.4 10.3-8.7 2.7-0.8 7-0.3 9.1 1.7 0.7 0.7 1.3 1.5 1.9 2.2 1.3 1.2 2.9 1.9 4.4 2.8 7.5 4.6 10.8 13.3 13.6 21.2 3 8.7 6.7 16.1 7.9 25.3 0.2 2.1 0.4 4.5-1 6-1.2 1.2-3.3 1.4-4.9 0.9-1.7-0.6-3-1.8-4.3-3-1.7-1.5-3.4-3.2-4.4-5.2-0.8-1.8-1.2-3.7-2.2-5.4-1.2-2-3.1-3.4-4.8-4.9-5.1-4.4-8.2-9.7-11.9-15.2-3.6 1.5-7.2 6.3-11.2 8.4-3.4 1.8-9.2 2.5-11.2 6.3-1.9 3.8-1 9.3-2.3 13.4-3.1 9.2-10.2 7.9-9.2-1.9 0.6-5.7 2.2-11.3 4.8-16.5z"/>
					<path id="&lt;Path&gt;" class="s4" d="m844 672.9h-68v8.5h5.5l8 45.3h41l8-45.3h5.5z"/>
					<path id="&lt;Path&gt;" class="s10" d="m779.6 682.1h60.9"/>
					<g id="&lt;Group&gt;">
						<path id="&lt;Path&gt;" class="s17" d="m781 614.5c0 0.9-0.7 1.6-1.6 1.6-1 0-1.7-0.7-1.7-1.6 0-1 0.7-1.7 1.7-1.7 0.9 0 1.6 0.7 1.6 1.7z"/>
						<path id="&lt;Path&gt;" class="s17" d="m795.9 621.1c0 0.9-0.7 1.6-1.6 1.6-0.9 0-1.7-0.7-1.7-1.6 0-0.9 0.8-1.7 1.7-1.7 0.9 0 1.6 0.8 1.6 1.7z"/>
						<path id="&lt;Path&gt;" class="s17" d="m792.6 639.3c0 0.9-0.7 1.7-1.6 1.7-1 0-1.7-0.8-1.7-1.7 0-0.9 0.7-1.6 1.7-1.6 0.9 0 1.6 0.7 1.6 1.6z"/>
						<path id="&lt;Path&gt;" class="s17" d="m802.6 602.9c0 0.9-0.8 1.6-1.7 1.6-0.9 0-1.7-0.7-1.7-1.6 0-1 0.8-1.7 1.7-1.7 0.9 0 1.7 0.7 1.7 1.7z"/>
						<path id="&lt;Path&gt;" class="s17" d="m782.7 569.7c0 0.9-0.8 1.7-1.7 1.7-0.9 0-1.6-0.8-1.6-1.7 0-0.9 0.7-1.6 1.6-1.6 0.9 0 1.7 0.7 1.7 1.6z"/>
						<path id="&lt;Path&gt;" class="s17" d="m805.9 659.2c0 0.9-0.8 1.7-1.7 1.7-0.9 0-1.6-0.8-1.6-1.7 0-0.9 0.7-1.6 1.6-1.6 0.9 0 1.7 0.7 1.7 1.6z"/>
						<path id="&lt;Path&gt;" class="s17" d="m791 655.9c0 0.9-0.8 1.7-1.7 1.7-0.9 0-1.7-0.8-1.7-1.7 0-0.9 0.8-1.7 1.7-1.7 0.9 0 1.7 0.8 1.7 1.7z"/>
						<path id="&lt;Path&gt;" class="s17" d="m789.3 594.6c0 0.9-0.7 1.6-1.7 1.6-0.9 0-1.6-0.7-1.6-1.6 0-0.9 0.7-1.7 1.6-1.7 1 0 1.7 0.8 1.7 1.7z"/>
					</g>
				</g>
			</g>
			<g id="&lt;Group&gt;">
				<path id="&lt;Path&gt;" class="s1" d="m469.3 833c-11.3-2.3-22.4-5.1-33.5-8.2-10.4-2.8-21.3-6.3-28.3-14.5-21-24.6 13.3-50 31.4-60.7 14.8-8.6 32.4-18.8 50.1-16.2 10 1.4 19.4 5.5 28.6 9.7 30.8 14 61.5 29.7 95 34.3 7 0.9 65.1 2.4 62.5 11.9-0.5 1.7-1.9 2.9-3.2 4-12.2 9.9-27.5 15.2-42.4 20.2-37.7 12.7-76.3 24.9-116.1 24.5-14.8-0.2-29.6-2.1-44.1-5z"/>
				<g id="&lt;Group&gt;">
					<path id="&lt;Path&gt;" class="s9" d="m490 758.9c-4.9 8.9 2.7 15.3 9.1 21.3 1.7 1.7 3.6 3.2 5.8 4.2 3.8 1.6 8.1 1.2 12.2 0.7 29.5-3.2 59.6-7.2 88.6-13.4 6.9-1.5 13.6-3.3 20.4-4.8 8.9-2 18.1-5.9 26.5-9.3 8.6-3.4 16.7-8.2 23.7-14.2q0.2-0.2 0.4-0.3c1.2-0.8 2.2-1.7 3.1-3.2 3.7-4.1 6.2-9.3 4.1-14.2-2.4-5.5-9.5-7.1-15.6-7.6-18.1-1.4-36.2 0.5-54.1 3.2-12.1 1.8-24 4.4-36.2 5.9-12.3 1.5-24 0.1-36.3 0.4-21.2 0.5-41.5 12.6-51.7 31.3z"/>
					<path id="&lt;Path&gt;" class="s6" d="m542.5 714.8c-7.5-3-15.2-0.2-19.3-8.7-1.5-3.1-2.2-6.5-3.3-9.7-3.4-10.1-10.9-18.7-20.3-23.4 7.4-7 17.3-10.5 26.2-15.1 8.3-4.3 15.9-9.8 22.7-16.1 6.2-5.9 15.9-18.4 10.7-27.6-4.1-7.3-14.4-5-21.1-3.3-9.3 2.4-17.4 2.8-25.8 8.3-8.1 5.3-14.7 12.4-21.3 19.5-10.1 11.1-32.3 32.8-17.8 48.4 8.2 8.8 16.7 17.3 26.6 24.2 2.8 1.9 5.7 3.8 8.8 5.1 6.1 2.7 8.5 7.8 14.7 10.5 5.1 2.3 10.6 4 16.2 4.3 4.2 0.2 11-0.8 11.4-5.8 0.4-4.8-4.4-9-8.4-10.6z"/>
					<path id="&lt;Path&gt;" class="s6" d="m647.3 701.2c-3.7 4.8-9.8 8-15.6 6.6-6.2-1.4-10.2-7.2-13.5-12.6-5.3-8.6-10.2-17.5-12.9-27.2-2.9-10.7-4.2-27.7 6.4-34.8 7.5-5.1 19.9-2.2 25.7 4.2 12.6 14 21 44.4 11.2 61.7q-0.6 1.1-1.3 2.1z"/>
					<path id="&lt;Path&gt;" class="s18" d="m628 615.7c-9.3-9.9-20.4-17.1-35-16.8-3.9 0.1-7.8 0.8-11.7 0.9-13.8 0.5-27.4-2.9-40.7 2.4-14.1 5.6-27.2 13.7-39.6 22.5-1 0.7 23.2 33.9 25.8 36.9 10-7.4 7.6 27.2 7.4 31.9-0.4 11.6-0.7 23.4 1.7 34.9 0.6-0.8 1.3-1.7 2.2-1.9 1.2-0.3 2 1.2 3 1.4 2.3 0.6 5.4 0 7.7 0 4.5 0 8.9 0 13.4-0.1 10.2 0 20.5-0.1 30.7-1.5 5.3-0.8 10.6-1.5 15.9-1.4 2.8-9.7 1.8-21.3 2-30.9 0.3-9.2-0.4-18.3 0.3-27.5 13.1-3.2 26-7.4 38.5-12.4 0.8-0.3-6-15.7-6.7-17.2-2.9-5.7-6.4-11.2-10.5-16.2q-2.1-2.6-4.4-5z"/>
					<path id="&lt;Path&gt;" class="s6" d="m555.1 788.1c-1.9 1.9-41.9 10.7-41.9 10.7l-1.9-20.3 37.2-13.3z"/>
					<path id="&lt;Path&gt;" class="s9" d="m656.3 763.8c4.7-2.6 9.3-5.3 14.4-7.2 5.3-2 11.2-3.3 15.3-7.2 4.4-4.2 5.7-10.5 6.9-16.4 1.3-6.6 1.3-14-0.5-20.5-2.6-9.2-10.1-17-19.5-19.1-5.7-1.3-11.8-0.5-17 2.1-3.9 1.9-7.1 4.8-10.9 6.8-3.2 1.7-6.7 2.8-10 4.1-10.1 3.9-19.5 9.8-28.7 15.4-9.3 5.6-17.6 12.7-26.6 18.8-3.6 2.4-40.9 20.5-40.8 20.5 4.8 10.7 9 21.8 13.4 32.8 24.1-3.3 47.4-10.9 70.8-17.2 4.7-1.2 9-3.1 13.6-4.1 5.3-1.2 10.2-3.6 14.9-6.1q2.4-1.3 4.7-2.7z"/>
					<path id="&lt;Path&gt;" class="s9" d="m511.8 801c-7.4 1.4-14.8-0.2-22.7-1-6.2-0.7-12.6 0.4-18.8-0.5-8.2-1.3-14.6-7.1-15.2-15.3-0.4-4.7-0.5-9.8 2.5-13.3 2.5-2.9 6.7-3.8 10.5-3.5 3.7 0.3 7.3 1.8 10.9 3 6.2 2.1 12.5 3.7 18.9 5 5.1 1.1 9.5 3.7 14.6 1.1 0.3-0.1 0.6-0.2 0.9-0.1 0.3 0.1 0.5 0.4 0.6 0.7q2.7 7.7 4.9 15.5c0.7 2.8 2 4.3-0.3 6-1.7 1.3-4.7 1.9-6.8 2.4z"/>
					<path id="&lt;Path&gt;" class="s6" d="m591.5 788.1c1.9 1.9 41.9 10.7 41.9 10.7l1.9-20.3-37.2-13.3z"/>
					<path id="&lt;Path&gt;" class="s9" d="m488.9 766.2c-7.7-2.9-15.2-6.3-22.2-10.6-2.4-1.4-4.8-3-6.5-5.2-2.4-3.1-3.2-7.1-3.9-10.9-2.7-14.4-6.6-25.4 3.8-37.6 8.5-10 22.1-13.8 33.7-6.6 7.5 4.6 12.5 13.1 20.8 16 4.5 1.6 9.6 1.3 14 3.3 4 1.9 7.9 4.9 11.7 7.2 9.3 5.6 17.6 12.7 26.6 18.8 3.6 2.4 40.8 20.5 40.8 20.5-4.8 10.7-9 21.8-13.4 32.8-24.1-3.3-47.4-10.9-70.8-17.2-11.6-3.1-23.3-6.2-34.6-10.5z"/>
					<path id="&lt;Path&gt;" class="s9" d="m634.8 801c7.4 1.4 14.8-0.2 22.7-1 6.2-0.7 12.6 0.4 18.8-0.5 7.8-1.2 16.7-8.9 17-17.2 0.1-2.6-0.6-5.1-1.5-7.5-0.6-1.3-1.2-2.5-2-3.6-1.9-2.4-4.9-3.8-8-4.1-4.6-0.4-9.3 1.1-13.7 2.4-4.6 1.3-8.8 2-13.2 3.9-5.7 2.5-12 3.4-18.1 2.5-1.6-0.2-3.3-0.5-4.8 0-3.5 1-3.1 6.2-3.4 9-0.4 4.3-0.6 8.8-2.4 12.8 2.9 1.7 5.8 2.7 8.6 3.3z"/>
					<path id="&lt;Path&gt;" class="s6" d="m617 633.7q0-0.1-0.1-0.2-0.1-2.5-0.3-5c0-0.9-0.1-1.8 0.1-2.6 0.4-2.7 2.5-4.7 4.5-6.5 1.5-1.3 14-13.6 15-12.9 3.9 3 6.3 0.3 9.2-2.7 0.9-1 1.8-2.1 1.7-3.3 0-1.3-1.5-2.5-2.6-1.8q3.4-3.8 6.7-7.7c1.9-2.3 3.7-3.7 2.5-6.8-2.1-4.9-6.5-8.7-11.3-11-3.8-1.9-9.9-4.5-14.2-4.2-4.8 0.4-7.2 4.4-10.8 6.9-0.2 0.1-0.4 0.2-0.5 0.2-0.3 0-0.4-0.2-0.6-0.4-1.3-1.2-3.5-0.9-5 0.1-1.4 1.1-2.2 2.8-2.9 4.4-0.4 1.1-0.8 2.3-0.6 3.4 0.3 1.1 1.3 2.2 2.4 2-0.9 0.2-2.4 7-2.6 7.9-1.2 4.3-3.9 6.7-6.9 10-2.8 3.1-6 6.3-10.1 6.1-1.8 0-4-0.6-5.1 0.8-0.3 0.5-0.4 1.2-0.5 1.8-0.7 8.9 5 16.8 12.2 21.4 3.8 2.5 20.1 9.2 19.8 0.1z"/>
					<path id="&lt;Path&gt;" class="s4" d="m614.5 738.6h-102.5c-1.8 0-3.3-1.4-3.3-3.3v-61.8c0-1.8 1.5-3.3 3.3-3.3h102.5c1.8 0 3.3 1.5 3.3 3.3v61.8c0 1.9-1.5 3.3-3.3 3.3z"/>
					<path id="&lt;Path&gt;" class="s17" d="m569.7 702.3c0 3.5-2.9 6.4-6.5 6.4-3.5 0-6.4-2.9-6.4-6.4 0-3.6 2.9-6.4 6.4-6.4 3.6 0 6.5 2.8 6.5 6.4z"/>
					<path id="&lt;Compound Path&gt;" fill-rule="evenodd" class="s17" d="m662.5 579.4c-0.8 2.5-2 4.8-3.2 7.1-1.3 2.4-2.7 4.7-4.5 6.7-1.6 1.8-3.7 2.9-5.5 4.4-8.8 7.6-22.9 19.9-34.8 10.9-9-6.9-7.5-18-2.7-26.9 2.4-4.6 5-9.2 8.4-13.1 3.1-3.6 6.6-7.4 11.7-7.1 2.4 0.2 4.7 1.1 7 2 2.3 0.9 4.6 1.7 7 1.9 1.6 0.1 3.2-0.1 4.7-0.2q2.4-0.1 4.9 0.1c1.4 0.1 2.8 0.3 4 0.9 1.6 0.9 2.7 2.4 3.4 4q0.4 1 0.5 2c0.4 2.4-0.1 4.9-0.9 7.3zm-18.9 0.4c-2.5-1.7-4.8-3.8-7.3-5.6-2.5-1.7-5.4-3.1-8.4-3.1-8.2 0.1-13.6 10.9-15.3 18 4.7-0.7 9.5-0.3 13.6 2.4 4.7 3 6.5 8 8 13.1q0.3-0.2 0.6-0.4c5.5-3 10.9-9.3 14.6-14.2 0.8-1.1 1.6-2.3 2-3.5 1.1-4.5-4.9-4.9-7.8-6.7zm-19.9 20.3c-1.6-0.5-3.4-0.9-4.7-1.9-1-0.9-2.3 0.9-1.2 1.7 1.5 1.2 3.5 1.7 5.3 2.2 1.2 0.2 1.7-1.7 0.6-2z"/>
					<path id="&lt;Path&gt;" class="s6" d="m633.8 610q0.4-0.9 0.8-1.8c2.2-4.7 7.1-6.6 11-9.9 2.3-2 4.7-3.6 7.2-5.5 1.2-0.9 2.1-2.2 3.4-3 0.8-0.5 1.9-0.6 2.6 0.1 0.5 0.5 0.7 1.2 0.7 2 0.3 4.7-2.3 8.4-4.7 12.3-2 3.3-5.2 5.4-7.3 8.7-2.1 3.2-1.7 7.3-1.3 11.1q1 9.6 2.1 19.2c0.6 5.9 2.1 11 3.6 16.7 2.2 8.9 2 19.3 2.2 28.4 0.2 9.1-5.9 20.1-15.4 22-19.1 3.8-14.9-23.1-15.4-34-0.4-8.6 1.6-17.4 3.6-25.7 2-8.7 2.2-17.6 3.5-26.4 0.7-4.8 1.6-9.7 3.4-14.2z"/>
					<path id="&lt;Path&gt;" class="s5" d="m633.7 700.6q0.1 1.3-0.1 2.3c-0.3 1.7-1.5 3.3-3.2 3.6-1.8 0.2-3.4-1.1-4.6-2.4-4.9-5.4-7.4-12.3-7.3-19.5 0-2.1 0.2-4.2 1.4-5.9 1.2-1.6 3.6-2.6 5.4-1.5 1.1 0.7 1.7 2.1 2.2 3.4q2.4 6.5 4.8 13.1c0.7 1.9 1.3 4.6 1.4 6.9z"/>
					<path id="&lt;Path&gt;" class="s17" d="m640.5 702.3c-0.9 0.6-1.9 1-3 0.9-0.9-0.1-1 1.2-0.2 1.4 1.6 0.5 3.2 0.1 4.2-1.3 0.4-0.6-0.4-1.4-1-1z"/>
					<path id="&lt;Path&gt;" class="s17" d="m475.9 677.7c-0.8-0.8-1.4-1.9-1.2-3 0.1-0.9-0.2-1.7-1.1-2-0.7-0.2-1.8 0.3-1.9 1.1-0.4 2.3 0.2 4.5 1.9 6.1 1.5 1.4 3.8-0.8 2.3-2.2z"/>
					<path id="&lt;Path&gt;" class="s10" d="m536 781.7q15 3.7 30.1 6.1"/>
					<path id="&lt;Path&gt;" class="s10" d="m603 772.2q2-4.7 4.3-9.4c-13-7.3-25.6-15-38.5-22.5"/>
					<path id="&lt;Path&gt;" class="s10" d="m519.4 775.1c-9.4-2.3-18.7-5.2-27.7-8.9"/>
				</g>
			</g>
		</g>
	</g>
</svg>