<?xml version="1.0"?>
<svg width="512" height="512" xmlns="http://www.w3.org/2000/svg" xmlns:svg="http://www.w3.org/2000/svg" data-bbox="48 217.76156256055145 421.728699218006 63.39784096375729">
 <defs data-uid="o_fc0f1g193_8" transform="matrix(0.8963906764984131, 0, 0, 0.8963906764984131, 26.523988723754883, 26.523984909057617)">
  <linearGradient data-uid="o_fc0f1g193_9" gradientUnits="objectBoundingBox" id="o_fc0f1g193_5" x1="24.94%" x2="75.06%" y1="93.3%" y2="6.7%">
   <stop data-uid="o_fc0f1g193_10" offset="0%" stop-color="rgb(163,1,230)"/>
   <stop data-uid="o_fc0f1g193_11" offset="51%" stop-color="rgb(82,95,233)"/>
   <stop data-uid="o_fc0f1g193_12" offset="100%" stop-color="rgb(1,191,248)"/>
  </linearGradient>
  <linearGradient data-uid="o_fc0f1g193_13" gradientUnits="objectBoundingBox" id="o_fc0f1g193_6" x1="24.94%" x2="75.06%" y1="93.3%" y2="6.7%">
   <stop data-uid="o_fc0f1g193_14" offset="0%" stop-color="rgb(82,95,233)"/>
   <stop data-uid="o_fc0f1g193_15" offset="100%" stop-color="rgb(1,191,248)"/>
  </linearGradient>
 </defs>
 <g class="layer">
  <title>Layer 1</title>
  <path class="st0" d="m1595.4,567.9c-177.2,-263.9 -565.4,-263.9 -742.7,-0.2c-206.9,-17.2 -377.8,146.8 -377.8,347.2c0,192.2 156.4,348.5 348.5,348.5l803.1,0c192.2,0 348.5,-156.4 348.5,-348.5c0.1,-201.8 -172.8,-365.3 -379.6,-347zm31.2,603.2l-803.2,0c-141.3,0 -256.3,-115 -256.3,-256.2c0,-141.3 115,-256.2 256.3,-256.2c78.2,0 151.2,35.1 200.1,96.2l90.2,112.6l59.1,-73.8l-77.2,-96.4c-38.6,-48.2 -88.3,-84.4 -143.9,-106.4c141.6,-170.1 402.5,-171.5 545.1,0.6c-55,22 -104.2,58 -142.4,105.8l-314.4,392.6l118.2,0l268.2,-334.9c49,-61.1 121.9,-96.2 200.1,-96.2c141.3,0 256.3,115 256.3,256.2c0,141.2 -115,256.1 -256.2,256.1z" data-uid="o_fc0f1g193_17" fill="url(#o_fc0f1g193_5)" id="svg_1" transform="matrix(0.0709584653377533, 0, 0, 0.0709584653377533, 14.301823616027832, 191.51048278808594)"/>
  <path d="m14.26,0.58l0,0q-3.7,0 -6.44,-1.35q-2.73,-1.34 -4.22,-3.74q-1.49,-2.4 -1.49,-5.57l0,0l4.23,0q0,1.97 0.91,3.62q0.91,1.66 2.66,2.64q1.75,0.99 4.35,0.99l0,0q3.4,0 5.28,-1.63q1.87,-1.64 1.87,-4.08l0,0q0,-2.02 -0.87,-3.24q-0.86,-1.23 -2.32,-2q-1.47,-0.76 -3.36,-1.34q-1.9,-0.58 -3.96,-1.3l0,0q-3.89,-1.34 -5.76,-3.33q-1.88,-1.99 -1.88,-5.21l0,0q-0.04,-2.69 1.25,-4.78q1.3,-2.08 3.67,-3.26q2.38,-1.18 5.64,-1.18l0,0q3.22,0 5.6,1.2q2.37,1.2 3.69,3.32q1.32,2.11 1.37,4.8l0,0l-4.22,0q0,-1.4 -0.72,-2.76q-0.72,-1.37 -2.19,-2.24q-1.46,-0.86 -3.67,-0.86l0,0q-2.74,-0.05 -4.49,1.39q-1.75,1.44 -1.75,3.99l0,0q0,2.16 1.22,3.31q1.23,1.15 3.44,1.89q2.2,0.75 5.08,1.71l0,0q2.4,0.86 4.32,2.01q1.92,1.16 3,2.98q1.08,1.82 1.08,4.66l0,0q0,2.4 -1.24,4.53q-1.25,2.14 -3.77,3.48q-2.52,1.35 -6.31,1.35zm18.82,-0.58l-4.03,0l0,-34.56l4.03,0l0,20.78l9.75,-10.03l4.94,0l-10.56,10.75l11.91,13.06l-5.14,0l-10.9,-12.34l0,12.34zm20.62,-29.09l0,0q-1.2,0 -1.99,-0.79q-0.79,-0.79 -0.79,-1.99l0,0q0,-1.15 0.79,-1.92q0.79,-0.77 1.99,-0.77l0,0q1.15,0 1.97,0.77q0.81,0.77 0.81,1.92l0,0q0,1.2 -0.81,1.99q-0.82,0.79 -1.97,0.79zm2.02,29.09l-4.04,0l0,-23.81l4.04,0l0,23.81zm9.03,0l-4.03,0l0,-34.56l4.03,0l0,34.56zm8.65,0l-4.03,0l0,-34.56l4.03,0l0,34.56zm8.9,0l-4.03,0l0,-33.6l20.45,0l0,3.31l-16.42,0l0,11.81l13.97,0l0,3.26l-13.97,0l0,15.22zm28.05,0.58l0,0q-4.22,0 -6.72,-2.57q-2.5,-2.57 -2.5,-7.9l0,0l0,-13.92l4.04,0l0,13.49q0,7.44 6.09,7.44l0,0q3.12,0 5.16,-2.23q2.04,-2.23 2.04,-6.36l0,0l0,-12.34l4.03,0l0,23.81l-3.64,0l-0.29,-4.27q-1.11,2.25 -3.29,3.55q-2.18,1.3 -4.92,1.3zm25.89,0l0,0q-4.27,0 -7.1,-2.16q-2.83,-2.16 -3.31,-5.86l0,0l4.12,0q0.39,1.87 2,3.24q1.6,1.37 4.34,1.37l0,0q2.54,0 3.74,-1.08q1.2,-1.08 1.2,-2.57l0,0q0,-2.16 -1.56,-2.88q-1.56,-0.72 -4.39,-1.3l0,0q-1.92,-0.38 -3.84,-1.1q-1.92,-0.72 -3.21,-2.04q-1.3,-1.32 -1.3,-3.48l0,0q0,-3.12 2.33,-5.11q2.33,-1.99 6.31,-1.99l0,0q3.79,0 6.22,1.89q2.42,1.9 2.8,5.4l0,0l-3.98,0q-0.24,-1.82 -1.56,-2.85q-1.32,-1.04 -3.53,-1.04l0,0q-2.16,0 -3.33,0.92q-1.18,0.91 -1.18,2.4l0,0q0,1.44 1.51,2.25q1.51,0.82 4.11,1.39l0,0q2.2,0.48 4.2,1.18q1.99,0.7 3.26,2.06q1.27,1.37 1.27,3.96l0,0q0.05,3.22 -2.42,5.31q-2.47,2.09 -6.7,2.09zm15.33,-29.67l0,0q-1.2,0 -1.99,-0.79q-0.79,-0.79 -0.79,-1.99l0,0q0,-1.15 0.79,-1.92q0.79,-0.77 1.99,-0.77l0,0q1.15,0 1.97,0.77q0.81,0.77 0.81,1.92l0,0q0,1.2 -0.81,1.99q-0.82,0.79 -1.97,0.79zm2.02,29.09l-4.04,0l0,-23.81l4.04,0l0,23.81zm15.85,0.58l0,0q-3.36,0 -6.05,-1.54q-2.69,-1.54 -4.25,-4.34q-1.56,-2.81 -1.56,-6.6l0,0q0,-3.8 1.59,-6.6q1.58,-2.81 4.29,-4.35q2.72,-1.53 6.08,-1.53l0,0q3.36,0 6.04,1.53q2.69,1.54 4.25,4.35q1.56,2.8 1.56,6.6l0,0q0,3.79 -1.58,6.6q-1.59,2.8 -4.3,4.34q-2.71,1.54 -6.07,1.54zm0,-3.46l0,0q2.06,0 3.84,-1.01q1.78,-1.01 2.88,-3.02q1.1,-2.02 1.1,-4.99l0,0q0,-2.98 -1.08,-5q-1.08,-2.01 -2.85,-3.02q-1.78,-1.01 -3.79,-1.01l0,0q-2.07,0 -3.84,1.01q-1.78,1.01 -2.88,3.02q-1.11,2.02 -1.11,5l0,0q0,2.97 1.11,4.99q1.1,2.01 2.85,3.02q1.75,1.01 3.77,1.01zm19.6,2.88l-4.03,0l0,-23.81l3.65,0l0.24,4.27q1.15,-2.25 3.31,-3.55q2.16,-1.29 4.9,-1.29l0,0q4.22,0 6.74,2.56q2.52,2.57 2.52,7.9l0,0l0,13.92l-4.03,0l0,-13.49q0,-7.44 -6.14,-7.44l0,0q-3.08,0 -5.12,2.23q-2.04,2.24 -2.04,6.36l0,0l0,12.34z" data-uid="o_fc0f1g193_18" fill="url(#o_fc0f1g193_6)" id="svg_2" transform="matrix(1.4872076511383057, 0, 0, 1.4872076511383057, 162.8196258544922, 278.53350830078125)"/>
 </g>
</svg>